<svg xmlns="http://www.w3.org/2000/svg" viewBox="0 0 128 128"><!-- 名前に加えて見分けられるよう、人物ごとに色と顔を変えた同梱アイコン。 --><rect width="128" height="128" rx="34" fill="#8061a3"/><path d="M20 128Q23 94 64 96Q105 94 108 128" fill="#f5ebdf"/><ellipse cx="64" cy="65" rx="34" ry="39" fill="#f4c7a3"/><path d="M30 60Q20 15 65 22Q105 16 99 61L88 43L73 34L54 42L38 40Z" fill="#51515b"/><path d="M44 61l13 2m16 0l12 -2M52 84Q65 91 79 82" fill="none" stroke="#493227" stroke-width="4" stroke-linecap="round"/><circle cx="52" cy="69" r="3"/><circle cx="78" cy="69" r="3"/><path d="M55 108l9 8l10 -8" fill="none" stroke="#8061a3" stroke-width="5"/></svg>