<svg xmlns="http://www.w3.org/2000/svg" viewBox="0 0 800 320"><!-- 外部画像通信なしで店舗の雰囲気を区別するための背景。 --><rect width="800" height="320" fill="#b7b09b"/><rect x="220" y="35" width="360" height="170" fill="#658579"/><circle cx="455" cy="85" r="30" fill="#e5e9be"/><path d="M220 185Q320 60 405 190Q490 100 580 180V205H220" fill="#355c50"/><path d="M210 25h380v190H210ZM330 30v180M470 30v180M210 100h380" fill="none" stroke="#514b3e" stroke-width="10"/><path d="M0 225h800v95H0" fill="#757c61"/><path d="M0 270h800M160 225v95M640 225v95" stroke="#4e5948" stroke-width="4"/><rect x="85" y="110" width="30" height="105" rx="4" fill="#ece4c5"/><path d="M82 140h36M82 175h36" stroke="#b8ac8b" stroke-width="3"/><ellipse cx="400" cy="305" rx="270" ry="48" fill="#76604d"/></svg>